<?xml version="1.0" encoding="UTF-8" standalone="no"?>
<svg
   xmlns:dc="http://purl.org/dc/elements/1.1/"
   xmlns:cc="http://creativecommons.org/ns#"
   xmlns:rdf="http://www.w3.org/1999/02/22-rdf-syntax-ns#"
   xmlns:svg="http://www.w3.org/2000/svg"
   xmlns="http://www.w3.org/2000/svg"
   xmlns:sodipodi="http://sodipodi.sourceforge.net/DTD/sodipodi-0.dtd"
   xmlns:inkscape="http://www.inkscape.org/namespaces/inkscape"
   version="1.1"
   id="Logos"
   x="0px"
   y="0px"
   width="607.62402"
   height="262.27701"
   viewBox="0 0 607.62402 262.27702"
   enable-background="new 0 0 558 282.568"
   xml:space="preserve"
   sodipodi:docname="FAU_noborder.svg"
   inkscape:version="1.0.2 (e86c8708, 2021-01-15)"><metadata
   id="metadata843"><rdf:RDF><cc:Work
       rdf:about=""><dc:format>image/svg+xml</dc:format><dc:type
         rdf:resource="http://purl.org/dc/dcmitype/StillImage" /></cc:Work></rdf:RDF></metadata><defs
   id="defs1" /><sodipodi:namedview
   id="namedview1"
   pagecolor="#ffffff"
   bordercolor="#000000"
   borderopacity="0.25"
   inkscape:showpageshadow="2"
   inkscape:pageopacity="0.0"
   inkscape:pagecheckerboard="0"
   inkscape:deskcolor="#d1d1d1"
   inkscape:zoom="0.65809786"
   inkscape:cx="402.67568"
   inkscape:cy="283.3925"
   inkscape:current-layer="Logos"
   inkscape:document-rotation="0"
   showgrid="false"
   inkscape:window-width="1251"
   inkscape:window-height="747"
   inkscape:window-x="0"
   inkscape:window-y="25"
   inkscape:window-maximized="0" />
<path
   id="FAU_x5F_Logo_00000054986581416837337540000006401078742208127884_"
   fill="#04316a"
   d="m 54.703111,54.39474 9.744,-9.744 v 176.95001 h -9.744 z m 29.231,-8.182 H 200.85911 v -9.744 H 74.190111 V 153.39375 H 181.81211 v -9.744 H 83.934111 Z m 112.548999,77.95001 h -93.061 V 85.18874 h 79.587 l 9.744,-9.744 h -89.331 v -9.744 h 97.437 v -9.744 H 93.678111 v 77.95001 h 93.189999 z m -122.292999,97.438 h 9.744 v -48.719 h 9.744 v 40.538 l 9.743999,-9.744 v -30.794 h 78.391 v -9.744 H 74.190111 Z M 548.58311,36.46974 v 112.05301 c 0,26.074 -11.633,48.476 -38.78,65.656 l -0.219,-0.286 c 17.837,-14.146 29.256,-32.316 29.256,-55.789 V 36.46974 h -9.744 v 121.47101 c 0,34.979 -28.356,61.224 -63.335,61.224 -34.979,0 -63.334,-26.245 -63.334,-61.224 V 44.64974 l -9.744,9.744 v 103.70901 c 0,40.36 32.718,70.643 73.078,70.643 0.934,0 9.744,0 9.744,0 39.743,0 82.822,-29.351 82.822,-80.08 0,-0.048 0,-112.19601 0,-112.19601 z m -82.822,172.95101 c 29.581,0 53.563,-21.908 53.59,-51.48 v 0 -113.29101 l -9.744,9.744 v 94.12801 c 0,18.835 -15.269,31.667 -34.103,31.667 -18.834,0 -34.103,-12.832 -34.103,-31.667 V 36.46874 h -9.744 v 112.05301 c 0,24.216 19.631,41.411 43.847,41.411 9.902,0 21.921,-4.893 30.085,-13.503 l 0.219,0.286 c -7.655,14.195 -21.804,22.96 -40.048,22.96 -24.067,0 -43.602,-17.423 -43.841,-41.41 h -0.005 V 36.46974 h -9.744 v 121.79701 h 0.005 c 0.203,29.406 24.114,51.154 53.586,51.154 z m -216.519,-46.283 -24.64,58.463 9.746,-0.001 -0.001,0.001 h 0.001 l 12.319,-29.231 h 82.554 l 12.308,29.231 h 9.744 l -16.411,-38.975 h -84.089 l 4.106,-9.744 h 85.624 l 20.513,48.719 h 9.744 l -24.616,-58.463 z m 14.337,-126.66801 -71.61,169.85801 6.203,8.419 75.151,-178.27701 z m 38.975,0 75.058,178.27701 6.187,-8.419 -71.502,-169.85801 z m -58.97,116.92401 -28.818,68.206 h -9.744 l 73.171,-173.56201 40.258,95.61201 h 9.744 l -45.129,-107.18001 h 9.744 l 49.231,116.92501 h -98.457 z m 44.378,-59.01301 -20.764,49.27001 h 41.509 z m -40.276,49.26901 h 9.768 l 25.638,-60.83501 -4.879,-11.588 z" />
</svg>
